<svg xmlns="http://www.w3.org/2000/svg" viewBox="0 0 1280 640" role="img" aria-labelledby="title desc">
<title id="title">让 Agent 通过对话操作你的业务后台</title>
<desc id="desc">BailingHub 将自然语言请求连接到商城、SaaS、CRM 和 ERP，同时保留可信身份、权限、审批、审计与业务系统最终授权。</desc>
<defs><linearGradient id="social-glow" x1="0" y1="0" x2="1" y2="1"><stop offset="0" stop-color="#12261a"/><stop offset="1" stop-color="#0d1117"/></linearGradient><marker id="social-arrow" viewBox="0 0 10 10" refX="8" refY="5" markerWidth="8" markerHeight="8" orient="auto"><path d="M 0 0 L 10 5 L 0 10 z" fill="#3fb950"/></marker></defs>
<rect width="1280" height="640" fill="url(#social-glow)"/>
<path d="M 0 0 H 1280 V 8 H 0 Z" fill="#3fb950"/>
<circle cx="1140" cy="78" r="170" fill="#3fb950" opacity="0.05"/>
<circle cx="1120" cy="600" r="260" fill="#58a6ff" opacity="0.04"/>
<g transform="translate(84 60) scale(0.315) translate(-42 -44)">
<path fill="#3fb950" fill-rule="evenodd" d="M42 44h34v152H54l-12-12zM76 44h58v34H76zM76 103h22v34H76zM76 162h58v34H76zM150 44h22l12 12v8h-34zM150 86h34v110h-34z"/>
<path fill="#56d364" fill-rule="evenodd" d="M116 103h68v34h-68zM76 162h58v34H76z"/>
</g>
<text x="152" y="95" fill="#56d364" font-family="-apple-system, BlinkMacSystemFont, 'Segoe UI', 'PingFang SC', 'Microsoft YaHei', sans-serif" font-size="31" font-weight="850" text-anchor="start">BailingHub</text>
<text x="330" y="94" fill="#8b949e" font-family="ui-monospace, SFMono-Regular, Menlo, Consolas, monospace" font-size="17" font-weight="750" text-anchor="start">AGENT-TO-BUSINESS</text>
<text x="80" y="188" fill="#f0f6fc" font-family="-apple-system, BlinkMacSystemFont, 'Segoe UI', 'PingFang SC', 'Microsoft YaHei', sans-serif" font-size="58" font-weight="850" text-anchor="start">让 Agent 通过对话</text>
<text x="80" y="258" fill="#f0f6fc" font-family="-apple-system, BlinkMacSystemFont, 'Segoe UI', 'PingFang SC', 'Microsoft YaHei', sans-serif" font-size="58" font-weight="850" text-anchor="start">操作你的业务后台</text>
<text x="80" y="310" fill="#8b949e" font-family="-apple-system, BlinkMacSystemFont, 'Segoe UI', 'PingFang SC', 'Microsoft YaHei', sans-serif" font-size="25" font-weight="650" text-anchor="start">商城 · SaaS · CRM · ERP｜权限、审批与审计仍在你手里</text>
<text x="80" y="348" fill="#8b949e" font-family="-apple-system, BlinkMacSystemFont, 'Segoe UI', 'PingFang SC', 'Microsoft YaHei', sans-serif" font-size="18" font-weight="500" text-anchor="start">Connect natural-language agents to existing business systems—without bypassing authorization.</text>
<rect x="80" y="414" width="230" height="58" rx="29" fill="#1c242d" stroke="#30363d" stroke-width="2"/>
<text x="195" y="452" fill="#f0f6fc" font-family="-apple-system, BlinkMacSystemFont, 'Segoe UI', 'PingFang SC', 'Microsoft YaHei', sans-serif" font-size="21" font-weight="750" text-anchor="middle">自然语言目标</text>
<path d="M 310 443 H 365" fill="none" stroke="#3fb950" stroke-width="4" marker-end="url(#social-arrow)"/>
<rect x="380" y="382" width="390" height="126" rx="24" fill="#12261a" stroke="#3fb950" stroke-width="3"/>
<text x="575" y="424" fill="#56d364" font-family="-apple-system, BlinkMacSystemFont, 'Segoe UI', 'PingFang SC', 'Microsoft YaHei', sans-serif" font-size="30" font-weight="850" text-anchor="middle">BailingHub</text>
<text x="575" y="462" fill="#8b949e" font-family="-apple-system, BlinkMacSystemFont, 'Segoe UI', 'PingFang SC', 'Microsoft YaHei', sans-serif" font-size="21" font-weight="700" text-anchor="middle">身份 · 能力 · 审批 · 审计</text>
<text x="575" y="489" fill="#8b949e" font-family="ui-monospace, SFMono-Regular, Menlo, Consolas, monospace" font-size="14" font-weight="500" text-anchor="middle">Identity · capability · approval · audit</text>
<path d="M 770 443 H 825" fill="none" stroke="#3fb950" stroke-width="4" marker-end="url(#social-arrow)"/>
<rect x="840" y="414" width="360" height="58" rx="29" fill="#0c2d4a" stroke="#58a6ff" stroke-width="2"/>
<text x="1020" y="452" fill="#58a6ff" font-family="-apple-system, BlinkMacSystemFont, 'Segoe UI', 'PingFang SC', 'Microsoft YaHei', sans-serif" font-size="21" font-weight="750" text-anchor="middle">商城 · SaaS · CRM · ERP</text>
<rect x="80" y="552" width="1120" height="2" fill="#30363d"/>
<circle cx="98" cy="590" r="13" fill="#3d2f13" stroke="#d29922" stroke-width="2"/>
<text x="98" y="596" fill="#d29922" font-family="ui-monospace, SFMono-Regular, Menlo, Consolas, monospace" font-size="16" font-weight="850" text-anchor="middle">!</text>
<text x="124" y="597" fill="#8b949e" font-family="-apple-system, BlinkMacSystemFont, 'Segoe UI', 'PingFang SC', 'Microsoft YaHei', sans-serif" font-size="20" font-weight="650" text-anchor="start">不是让 AI 直连数据库；最终权限和业务规则仍由你的系统判断。</text>
</svg>
