<svg viewBox="0 0 144 58" xmlns="http://www.w3.org/2000/svg" role="img" aria-label="百灵中枢 BailingHub">
    <g transform="translate(0 -3) scale(0.2416667)">
      <path fill="#3fb950" fill-rule="evenodd" d="M42 44h34v152H54l-12-12zM76 44h58v34H76zM76 103h22v34H76zM76 162h58v34H76zM150 44h22l12 12v8h-34zM150 86h34v110h-34z"/>
      <path fill="#56d364" fill-rule="evenodd" d="M116 103h68v34h-68zM76 162h58v34H76z"/>
    </g>
    <path fill="#f3f5f7" transform="translate(0 1)" d="M59.197 7.553H77.824V10.535H59.197ZM63.397 17.486H73.897V20.237H63.397ZM63.481 22.442H73.603V25.256H63.481ZM66.715 8.645 70.474 9.401Q70.222 10.304 69.96 11.186Q69.697 12.068 69.466 12.845Q69.235 13.622 69.004 14.231L66.085 13.496Q66.232 12.803 66.368 11.963Q66.505 11.123 66.6 10.262Q66.694 9.401 66.715 8.645ZM61.129 12.509H76.081V26.474H72.805V15.323H64.237V26.474H61.129Z M87.925 15.911H91.159Q91.012 17.507 90.739 18.893Q90.466 20.279 89.868 21.476Q89.269 22.673 88.177 23.649Q87.085 24.626 85.342 25.392Q83.599 26.159 80.995 26.684Q80.806 26.075 80.344 25.298Q79.882 24.521 79.42 24.038Q81.73 23.639 83.242 23.082Q84.754 22.526 85.647 21.791Q86.539 21.056 86.99 20.163Q87.442 19.271 87.631 18.21Q87.82 17.15 87.925 15.911ZM82.948 16.541 85.573 17.507Q85.195 18.746 84.618 19.985Q84.04 21.224 83.179 22.085L80.638 20.552Q81.436 19.817 82.024 18.746Q82.612 17.675 82.948 16.541ZM95.401 16.415 98.047 17.927Q97.396 18.998 96.714 20.069Q96.031 21.14 95.443 21.917L93.175 20.531Q93.553 20.006 93.963 19.303Q94.372 18.599 94.761 17.843Q95.149 17.087 95.401 16.415ZM90.781 17.192Q91.306 19.145 92.335 20.499Q93.364 21.854 95.118 22.62Q96.871 23.387 99.58 23.639Q99.286 23.954 98.95 24.447Q98.614 24.941 98.32 25.466Q98.026 25.991 97.837 26.432Q95.611 26.075 94.025 25.382Q92.44 24.689 91.358 23.597Q90.277 22.505 89.542 20.993Q88.807 19.481 88.282 17.486ZM82.108 10.304H96.115V12.362H82.108ZM81.184 7.07H97.354V15.533H81.184V12.845H94.435V9.758H81.184Z M101.743 10.136H119.341V21.056H116.128V13.139H104.809V21.161H101.743ZM103.318 17.066H117.892V20.069H103.318ZM108.841 6.545H112.075V26.495H108.841Z M121.714 10.388H129.001V13.202H121.714ZM124.276 6.545H127.027V26.495H124.276ZM124.255 12.551 125.83 13.202Q125.62 14.525 125.305 15.9Q124.99 17.276 124.591 18.588Q124.192 19.901 123.709 21.035Q123.226 22.169 122.68 22.988Q122.554 22.547 122.312 21.98Q122.071 21.413 121.798 20.846Q121.525 20.279 121.273 19.859Q121.777 19.229 122.239 18.358Q122.701 17.486 123.089 16.499Q123.478 15.512 123.772 14.493Q124.066 13.475 124.255 12.551ZM126.922 13.664Q127.111 13.874 127.468 14.409Q127.825 14.945 128.234 15.585Q128.644 16.226 128.99 16.772Q129.337 17.318 129.463 17.549L127.72 19.565Q127.552 19.061 127.29 18.41Q127.027 17.759 126.722 17.066Q126.418 16.373 126.124 15.764Q125.83 15.155 125.599 14.714ZM141.118 7.574V10.325H132.403V23.051H141.454V25.781H129.442V7.574ZM132.235 12.614 134.482 11.144Q135.343 12.236 136.277 13.496Q137.212 14.756 138.115 16.026Q139.018 17.297 139.753 18.494Q140.488 19.691 140.95 20.699L138.409 22.484Q138.01 21.497 137.317 20.268Q136.624 19.04 135.774 17.717Q134.923 16.394 134.01 15.081Q133.096 13.769 132.235 12.614ZM137.947 10.913 140.761 11.669Q140.026 13.769 139.018 15.817Q138.01 17.864 136.844 19.649Q135.679 21.434 134.44 22.757Q134.209 22.484 133.789 22.085Q133.369 21.686 132.939 21.308Q132.508 20.93 132.172 20.699Q133.39 19.565 134.471 18Q135.553 16.436 136.445 14.619Q137.338 12.803 137.947 10.913Z"/>
    <path fill="#8e98a5" transform="translate(-1 0)" d="M60.891 43.8V35.77H63.3Q64.455 35.77 65.126 36.32Q65.797 36.87 65.797 37.838Q65.797 38.377 65.555 38.778Q65.313 39.18 64.895 39.4Q64.477 39.62 63.938 39.62V39.543Q64.532 39.532 64.988 39.763Q65.445 39.994 65.709 40.445Q65.973 40.896 65.973 41.523Q65.973 42.216 65.665 42.733Q65.357 43.25 64.791 43.525Q64.224 43.8 63.443 43.8ZM62.134 42.711H63.355Q63.971 42.711 64.334 42.381Q64.697 42.051 64.697 41.468Q64.697 40.874 64.334 40.516Q63.971 40.159 63.355 40.159H62.134ZM62.134 39.103H63.289Q63.861 39.103 64.186 38.8Q64.51 38.498 64.51 37.981Q64.51 37.453 64.186 37.156Q63.861 36.859 63.3 36.859H62.134Z M68.029 43.8 70.064 35.77H71.736L73.771 43.8H72.473L72 41.809H69.8L69.338 43.8ZM70.031 40.753H71.758L71.252 38.52Q71.12 37.948 71.026 37.497Q70.933 37.046 70.9 36.87Q70.867 37.046 70.779 37.492Q70.691 37.937 70.559 38.509Z M76.234 43.8V42.667H77.851V36.903H76.234V35.77H80.766V36.903H79.149V42.667H80.766V43.8Z M83.966 43.8V35.77H85.253V42.612H88.707V43.8Z M91.434 43.8V42.667H93.051V36.903H91.434V35.77H95.966V36.903H94.349V42.667H95.966V43.8Z M98.847 43.8V35.77H100.431L102.719 42.348Q102.697 42.018 102.658 41.561Q102.62 41.105 102.598 40.615Q102.576 40.126 102.576 39.741V35.77H103.753V43.8H102.169L99.892 37.222Q99.925 37.519 99.952 37.959Q99.98 38.399 100.002 38.867Q100.024 39.334 100.024 39.73V43.8Z M108.944 43.91Q108.185 43.91 107.618 43.624Q107.052 43.338 106.744 42.804Q106.436 42.271 106.436 41.556V38.014Q106.436 37.288 106.744 36.76Q107.052 36.232 107.618 35.946Q108.185 35.66 108.944 35.66Q109.714 35.66 110.269 35.951Q110.825 36.243 111.133 36.765Q111.441 37.288 111.441 38.014H110.165Q110.165 37.42 109.846 37.106Q109.527 36.793 108.944 36.793Q108.361 36.793 108.036 37.106Q107.712 37.42 107.712 38.014V41.556Q107.712 42.139 108.036 42.463Q108.361 42.788 108.944 42.788Q109.527 42.788 109.846 42.463Q110.165 42.139 110.165 41.545V40.698H108.724V39.576H111.441V41.556Q111.441 42.271 111.133 42.799Q110.825 43.327 110.269 43.618Q109.714 43.91 108.944 43.91Z M121.691 43.8V35.77H122.978V39.048H125.222V35.77H126.509V43.8H125.222V40.236H122.978V43.8Z M131.7 43.91Q130.534 43.91 129.89 43.272Q129.247 42.634 129.247 41.534V35.77H130.523V41.523Q130.523 42.117 130.82 42.453Q131.117 42.788 131.7 42.788Q132.272 42.788 132.574 42.453Q132.877 42.117 132.877 41.523V35.77H134.153V41.534Q134.153 42.634 133.515 43.272Q132.877 43.91 131.7 43.91Z M136.891 43.8V35.77H139.3Q140.455 35.77 141.126 36.32Q141.797 36.87 141.797 37.838Q141.797 38.377 141.555 38.778Q141.313 39.18 140.895 39.4Q140.477 39.62 139.938 39.62V39.543Q140.532 39.532 140.988 39.763Q141.445 39.994 141.709 40.445Q141.973 40.896 141.973 41.523Q141.973 42.216 141.665 42.733Q141.357 43.25 140.79 43.525Q140.224 43.8 139.443 43.8ZM138.134 42.711H139.355Q139.971 42.711 140.334 42.381Q140.697 42.051 140.697 41.468Q140.697 40.874 140.334 40.516Q139.971 40.159 139.355 40.159H138.134ZM138.134 39.103H139.289Q139.861 39.103 140.185 38.8Q140.51 38.498 140.51 37.981Q140.51 37.453 140.185 37.156Q139.861 36.859 139.3 36.859H138.134Z"/>
  </svg>
